<svg width="31" height="31" viewBox="0 0 31 31" fill="none" xmlns="http://www.w3.org/2000/svg">
<path d="M30.0833 21.6105C30.0833 26.9188 26.9187 30.0834 21.6104 30.0834H19.875C19.0729 30.0834 18.4166 29.4272 18.4166 28.6251V20.2105C18.4166 19.8168 18.7374 19.4813 19.1312 19.4813L21.6979 19.4376C21.902 19.423 22.0771 19.2772 22.1208 19.073L22.6312 16.2876C22.675 16.0251 22.4708 15.7772 22.1937 15.7772L19.0874 15.8209C18.6791 15.8209 18.3583 15.5001 18.3437 15.1063L18.2854 11.5334C18.2854 11.3001 18.4749 11.0959 18.7229 11.0959L22.2229 11.0376C22.4708 11.0376 22.6604 10.848 22.6604 10.6001L22.602 7.10007C22.602 6.85215 22.4125 6.66258 22.1646 6.66258L18.227 6.72093C15.8062 6.76468 13.8812 8.748 13.925 11.1688L13.9979 15.1792C14.0125 15.5876 13.6916 15.9084 13.2833 15.923L11.5333 15.9522C11.2854 15.9522 11.0958 16.1417 11.0958 16.3896L11.1396 19.1605C11.1396 19.4084 11.3291 19.598 11.577 19.598L13.3271 19.5688C13.7354 19.5688 14.0562 19.8897 14.0708 20.2834L14.202 28.5959C14.2166 29.4126 13.5604 30.0834 12.7437 30.0834H9.38954C4.08121 30.0834 0.916626 26.9188 0.916626 21.5959V9.38966C0.916626 4.08133 4.08121 0.916748 9.38954 0.916748H21.6104C26.9187 0.916748 30.0833 4.08133 30.0833 9.38966V21.6105Z" fill="#837D87"/>
</svg>
