<svg width="31" height="31" viewBox="0 0 31 31" fill="none" xmlns="http://www.w3.org/2000/svg">
<path fill-rule="evenodd" clip-rule="evenodd" d="M15.5 0.916748C7.44996 0.916748 0.916626 7.45008 0.916626 15.5001C0.916626 23.5501 7.44996 30.0834 15.5 30.0834C23.55 30.0834 30.0833 23.5501 30.0833 15.5001C30.0833 7.45008 23.55 0.916748 15.5 0.916748ZM23.2437 20.3272C22.8208 20.5605 22.4708 20.6626 22.1791 20.7355C21.9312 20.7938 21.727 20.8522 21.552 20.9688C21.3624 21.0855 21.3479 21.2751 21.3187 21.4501C21.2895 21.6105 21.275 21.7417 21.1583 21.8292C21.027 21.9167 20.7791 21.9314 20.4437 21.9459C20.0062 21.9751 19.452 21.9897 18.7812 22.1938C18.4604 22.3105 18.1687 22.4855 17.877 22.6605C17.2937 23.0251 16.6374 23.4188 15.4854 23.4188C14.3479 23.4188 13.6916 23.0251 13.1083 22.6605C12.8166 22.4709 12.525 22.2959 12.1896 22.1792C11.5333 21.9751 10.9645 21.9459 10.527 21.9313C10.1916 21.9168 9.9583 21.9021 9.81247 21.8146C9.6958 21.7417 9.68119 21.5959 9.65203 21.4355C9.62286 21.2605 9.60827 21.0709 9.41869 20.9542C9.24369 20.8376 9.02495 20.7793 8.79162 20.7063C8.49995 20.6334 8.14998 20.5459 7.72706 20.3126C7.23123 20.0355 7.5229 19.8751 7.68331 19.7876C10.4979 18.4313 10.9354 16.3313 10.95 16.1709C10.95 16.1563 10.95 16.1563 10.95 16.1418C10.9791 15.9668 10.9937 15.8209 10.7895 15.6313C10.6583 15.5001 10.2062 15.2084 9.84162 14.9751C9.6812 14.8584 9.53538 14.7709 9.44788 14.7272C9.03955 14.4355 8.86455 14.1584 8.9958 13.7938C9.0833 13.5459 9.31664 13.4584 9.54998 13.4584C9.6229 13.4584 9.71039 13.473 9.76872 13.4876C10.0312 13.5459 10.2937 13.648 10.527 13.7355C10.6875 13.8084 10.8187 13.8522 10.9208 13.8814C10.9499 13.8959 10.9937 13.8959 11.0083 13.8959C11.1541 13.8959 11.1979 13.823 11.1833 13.6772C11.1833 13.6334 11.1833 13.5897 11.1687 13.5459C11.1395 13.0355 11.0958 12.1459 11.1541 11.3293C11.2708 10.1043 11.6645 9.47718 12.1312 8.95218C12.3645 8.68968 13.4291 7.56674 15.4562 7.56674C17.4979 7.56674 18.5479 8.68966 18.7812 8.93758C19.2479 9.47716 19.6416 10.0897 19.7583 11.3293C19.8312 12.1897 19.7729 13.1084 19.7291 13.6188V13.6626C19.7145 13.823 19.7583 13.8814 19.9041 13.8814C19.9333 13.8814 19.9624 13.8813 19.9916 13.8668C20.0937 13.8376 20.225 13.7938 20.3854 13.7355C20.6041 13.648 20.8666 13.5459 21.1437 13.4876C21.2166 13.4584 21.2895 13.4584 21.3624 13.4584C21.6104 13.4584 21.8291 13.5605 21.9166 13.8084C22.0479 14.1584 21.8729 14.4355 21.4645 14.7272C21.3916 14.7855 21.2458 14.8876 21.0708 14.9751C20.7208 15.2084 20.2541 15.5001 20.1229 15.6313C19.9187 15.8209 19.9333 15.9668 19.9625 16.1418C19.9625 16.1563 19.9625 16.1709 19.9625 16.1709C19.9916 16.3313 20.4291 18.4313 23.2291 19.7876C23.4479 19.8751 23.7395 20.0501 23.2437 20.3272Z" fill="#837D87"/>
</svg>
