<svg width="29" height="31" viewBox="0 0 29 31" fill="none" xmlns="http://www.w3.org/2000/svg">
<path d="M28.7042 14.1438C28.6313 13.4001 28.0042 12.8459 27.2605 12.8459H16.25C15.448 12.8459 14.7917 13.5022 14.7917 14.3042V16.798C14.7917 17.6001 15.448 18.2564 16.25 18.2564H22.8271C22.6667 19.598 21.7917 21.6251 19.8521 22.9813C18.6125 23.8418 16.9646 24.4397 14.7917 24.4397C14.6896 24.4397 14.6021 24.4397 14.5 24.4251C10.7813 24.3084 7.6313 21.8147 6.4938 18.3876C6.18755 17.4688 6.01255 16.5063 6.01255 15.5001C6.01255 14.4938 6.18754 13.5167 6.47921 12.6126C6.56671 12.3501 6.66879 12.0876 6.78546 11.8251C8.12713 8.80635 11.0584 6.67717 14.5 6.57509C14.5875 6.5605 14.6896 6.56049 14.7917 6.56049C16.8771 6.56049 18.4375 7.24589 19.5313 8.00423C20.1 8.39798 20.8584 8.31048 21.3542 7.82923L23.3813 5.84592C24.023 5.21884 23.9646 4.15423 23.2355 3.62923C20.9167 1.92298 18.0875 0.916748 14.7917 0.916748C14.6896 0.916748 14.6021 0.916762 14.5 0.931346C8.91463 1.03343 4.11671 4.27093 1.76879 8.95218C0.777124 10.9355 0.208374 13.1522 0.208374 15.5001C0.208374 17.848 0.777124 20.0646 1.76879 22.048H1.78338C4.13129 26.7292 8.92921 29.9667 14.5 30.0688C14.6021 30.0834 14.6896 30.0834 14.7917 30.0834C18.7292 30.0834 22.0396 28.7855 24.4459 26.5542C27.2021 24.0021 28.7917 20.2688 28.7917 15.8209C28.7917 15.1938 28.7625 14.6543 28.7042 14.1438Z" fill="#837D87"/>
</svg>
